<svg width="90" height="24" viewBox="0 0 90 24" fill="none" xmlns="http://www.w3.org/2000/svg">
<g clip-path="url(#clip0_168_95)">
<path d="M86.4628 3.32605V16.2006L76.5136 3.32605H72.9784V22.7212H76.5136V9.46326L86.4628 22.7212H89.9999V3.32605H86.4628Z" fill="white"/>
<path d="M16.766 3.32605V3.44608L10.4429 10.1989L3.53518 3.32605H0V22.7212H3.53518V8.19516L8.04612 12.7584L10.53 15.2752L10.532 15.2733L10.5339 15.2752L13.0159 12.7584L13.012 12.7545L16.766 8.94052V22.7212H20.3031V3.32605H16.766Z" fill="white"/>
<path d="M26.6571 6.17779C28.4653 4.39665 30.7343 3.50415 33.4622 3.50415C36.1901 3.50415 38.4591 4.39471 40.2673 6.17779C42.0756 7.96087 42.9797 10.2415 42.9797 13.0236C42.9797 15.8056 42.0756 18.0863 40.2673 19.8694C38.4591 21.6525 36.1901 22.543 33.4622 22.543C30.7343 22.543 28.4634 21.6525 26.6571 19.8694C24.8488 18.0882 23.9447 15.8056 23.9447 13.0236C23.9447 10.2415 24.8488 7.96087 26.6571 6.17779ZM38.1822 8.1719C36.9645 6.90381 35.3924 6.2688 33.4622 6.2688C31.532 6.2688 29.958 6.90381 28.7422 8.1719C27.5244 9.44194 26.9165 11.0585 26.9165 13.0217C26.9165 14.9848 27.5244 16.6033 28.7422 17.8714C29.958 19.1414 31.532 19.7745 33.4622 19.7745C35.3924 19.7745 36.9645 19.1395 38.1822 17.8714C39.398 16.6033 40.0079 14.9867 40.0079 13.0217C40.0079 11.0566 39.4 9.44 38.1822 8.1719Z" fill="white"/>
<path d="M69.1239 10.4797C69.0174 10.1835 68.8316 9.91627 68.5876 9.7188C68.1772 9.3858 67.7822 9.3858 67.2285 9.3858C65.2557 9.58909 65.399 10.7468 65.4358 12.3828C65.4397 12.557 65.4513 12.7332 65.4648 12.9074C65.9062 18.1637 62.4582 20.7309 60.8784 21.4163C61.3333 19.9333 62.2104 18.7813 62.6944 18.3573C64.0515 18.0108 64.4523 17.6255 64.5588 17.2325C64.7369 16.5685 64.069 16.0012 63.4126 16.2045C61.8793 16.6788 60.1814 19.3563 60.1814 19.3563C60.1814 19.3563 60.6364 18.3264 61.0294 17.7514C61.4534 17.2364 61.3624 17.0254 61.3314 16.5704C60.8397 15.3023 60.648 14.5743 60.588 14.0981C60.528 13.6218 60.6344 13.1785 60.8435 12.7661C61.192 12.0788 60.8048 11.6335 60.4525 11.1824C59.4225 10.5203 58.9888 12.5609 58.8436 13.616C58.7991 13.9374 58.9056 14.2588 59.1243 14.4969C60.3073 15.7921 59.9975 16.3923 59.7923 17.8598C59.7516 18.1483 59.6974 18.4367 59.62 18.7155C59.1147 20.5315 58.2512 20.9187 57.7014 20.911C57.4303 20.9071 57.2135 20.6903 57.2115 20.4192C57.2057 19.7474 57.1883 18.8336 57.169 18.2199C57.1573 17.8753 57.0373 17.5442 56.8224 17.2732C56.2048 16.4988 55.0238 15.6798 54.3017 15.2462C54.0965 15.1223 53.8274 15.2035 53.7248 15.4204C53.4557 15.9896 53.3182 16.2722 53.1807 16.4891C53.142 16.5491 53.0491 16.5046 53.0723 16.4368C53.3763 15.5036 53.4808 14.828 53.4731 14.3362C53.4595 13.4398 52.5883 12.7893 51.7481 13.101C51.2234 13.2946 51.3202 13.676 51.2776 14.0903C51.2234 15.5598 50.9737 15.4397 50.571 15.401C50.4335 15.3875 50.298 15.3391 50.1915 15.25C49.5371 14.7099 50.3561 13.587 50.8246 13.0914C51.3396 12.5454 52.7025 12.1834 53.8216 11.7284C55.4323 11.136 55.8583 11.9355 56.1409 12.5706C56.3094 12.9481 56.6269 13.2501 57.0238 13.3663C57.5465 13.5192 57.8117 13.2462 57.953 12.9132C58.0944 12.5802 58.0905 12.2202 57.9763 11.8833C57.6839 11.0295 56.9966 10.6423 56.3229 10.4797C55.5872 10.3015 54.8147 10.4409 54.1449 10.7972C53.4421 11.1708 52.8168 11.2541 52.3405 11.3025C53.8855 10.4855 53.8235 10.0305 54.0365 9.36451C53.7344 9.33354 53.1885 8.94052 53.0375 8.60752C52.6735 6.60954 51.1595 6.12553 50.4935 6.06358C51.0395 4.73159 50.3116 4.1566 50.0095 3.82361C49.8914 4.63287 49.4733 5.1614 49.1073 5.49634C48.846 5.7364 48.5885 5.98032 48.3581 6.24943C45.6574 9.39741 45.6109 12.5067 46.2517 14.8725C46.8499 17.0834 48.1993 19.0098 49.994 20.4347C54.1642 23.7453 58.8301 23.2323 61.1843 22.6902C62.1445 22.4695 63.0622 22.09 63.8928 21.5595C69.5982 17.9024 69.8151 12.4002 69.1239 10.4777V10.4797Z" fill="white"/>
<path d="M55.3703 13.1108C55.5093 13.1108 55.622 12.9981 55.622 12.8591C55.622 12.7201 55.5093 12.6074 55.3703 12.6074C55.2313 12.6074 55.1187 12.7201 55.1187 12.8591C55.1187 12.9981 55.2313 13.1108 55.3703 13.1108Z" fill="white"/>
<path d="M55.44 13.9703C55.579 13.9703 55.6917 13.8576 55.6917 13.7186C55.6917 13.5796 55.579 13.4669 55.44 13.4669C55.301 13.4669 55.1884 13.5796 55.1884 13.7186C55.1884 13.8576 55.301 13.9703 55.44 13.9703Z" fill="white"/>
<path d="M54.6075 13.9703C54.7465 13.9703 54.8592 13.8576 54.8592 13.7186C54.8592 13.5796 54.7465 13.4669 54.6075 13.4669C54.4685 13.4669 54.3558 13.5796 54.3558 13.7186C54.3558 13.8576 54.4685 13.9703 54.6075 13.9703Z" fill="white"/>
<path d="M54.5399 13.167C54.6789 13.167 54.7916 13.0543 54.7916 12.9153C54.7916 12.7763 54.6789 12.6636 54.5399 12.6636C54.4009 12.6636 54.2882 12.7763 54.2882 12.9153C54.2882 13.0543 54.4009 13.167 54.5399 13.167Z" fill="white"/>
<path d="M57.7071 15.3371C57.6084 15.2383 57.4496 15.2383 57.3509 15.3371C57.2522 15.4358 57.2522 15.5946 57.3509 15.6933L57.6239 15.9295L57.4109 16.1754C57.3122 16.2741 57.3122 16.4329 57.4109 16.5316C57.5097 16.6304 57.6684 16.6304 57.7672 16.5316L58.0034 16.2586L58.2492 16.4716C58.348 16.5703 58.5067 16.5703 58.6055 16.4716C58.7042 16.3729 58.7042 16.2141 58.6055 16.1154L58.3325 15.8792L58.5454 15.6333C58.6442 15.5346 58.6442 15.3758 58.5454 15.2771C58.4467 15.1783 58.2879 15.1783 58.1892 15.2771L57.953 15.55L57.7071 15.3371Z" fill="white"/>
<path d="M62.6284 1.91279C61.3874 2.21094 61.1706 2.45295 60.9015 3.82559C60.6324 2.45295 60.4136 2.21094 59.1746 1.91279C60.4156 1.61465 60.6324 1.37264 60.9015 0C61.1706 1.37264 61.3894 1.61465 62.6284 1.91279Z" fill="white"/>
<path d="M66.394 4.26501C65.5073 4.47798 65.3504 4.6503 65.1588 5.63186C64.9671 4.6503 64.8103 4.47798 63.9236 4.26501C64.8103 4.05205 64.9671 3.87976 65.1588 2.89819C65.3504 3.87976 65.5073 4.05205 66.394 4.26501Z" fill="white"/>
<path d="M60.6711 5.8352C60.1329 5.96491 60.038 6.06944 59.9218 6.66574C59.8057 6.06944 59.7108 5.96491 59.1726 5.8352C59.7108 5.70549 59.8057 5.60093 59.9218 5.00464C60.038 5.60093 60.1329 5.70549 60.6711 5.8352Z" fill="white"/>
</g>
<defs>
<clipPath id="clip0_168_95">
<rect width="90" height="23.0878" fill="white"/>
</clipPath>
</defs>
</svg>
