<svg width="25" height="20" viewBox="0 0 25 20" fill="none" xmlns="http://www.w3.org/2000/svg">
<g clip-path="url(#clip0_49_97)">
<path d="M24.7826 4.73682L0.86955 4.73682" stroke="white"/>
<path d="M4.13044 4.73679C4.13044 6.69014 5.8337 8.27363 7.93479 8.27363C10.0359 8.27363 11.7391 6.69014 11.7391 4.73679C11.7391 2.78345 10.0359 1.19995 7.93479 1.19995C5.8337 1.19995 4.13044 2.78345 4.13044 4.73679Z" fill="white" stroke="white" stroke-width="0.75"/>
<path d="M24.7826 15.2632L0.86955 15.2632" stroke="white"/>
<path d="M13.913 15.2632C13.913 17.2165 15.6163 18.8 17.7174 18.8C19.8185 18.8 21.5217 17.2165 21.5217 15.2632C21.5217 13.3098 19.8185 11.7263 17.7174 11.7263C15.6163 11.7263 13.913 13.3098 13.913 15.2632Z" fill="white" stroke="white" stroke-width="0.75"/>
</g>
<defs>
<clipPath id="clip0_49_97">
<rect width="25" height="20" fill="white"/>
</clipPath>
</defs>
</svg>
