<svg
    viewBox="0 0 13 13"
    fill="none"
    xmlns="http://www.w3.org/2000/svg"
>
    <path
    d="M4.66667 12H3.44444C2.79614 12 2.17438 11.7324 1.71596 11.256C1.25754 10.7797 1 10.1336 1 9.45989V5.4643C0.999991 5.02754 1.10836 4.59815 1.31464 4.21761C1.52092 3.83706 1.81815 3.51822 2.17761 3.29187L5.23317 1.36773C5.61518 1.12718 6.05332 1 6.5 1C6.94668 1 7.38482 1.12718 7.76683 1.36773L10.8224 3.29187C11.1818 3.51816 11.4789 3.83691 11.6852 4.21733C11.8915 4.59775 11.9999 5.02701 12 5.46366V9.45989C12 10.1336 11.7425 10.7797 11.284 11.256C10.8256 11.7324 10.2039 12 9.55556 12H8.33333M4.66667 12V9.45989C4.66667 8.95463 4.85982 8.47007 5.20364 8.11279C5.54745 7.75552 6.01377 7.55481 6.5 7.55481C6.98623 7.55481 7.45255 7.75552 7.79636 8.11279C8.14018 8.47007 8.33333 8.95463 8.33333 9.45989V12M4.66667 12H8.33333"
    stroke="#DFDFDF"
    stroke-linecap="round"
    stroke-linejoin="round"
    />
</svg>