<svg
    viewBox="0 0 13 13"
    fill="none"
    xmlns="http://www.w3.org/2000/svg"
>
    <path
    d="M8.94444 9.23021V4.34132M6.5 9.23021V6.17466M4.05556 9.23021V7.39688M1 11.9191V1.65243C1 1.55519 1.03863 1.46192 1.10739 1.39316C1.17616 1.3244 1.26942 1.28577 1.36667 1.28577H11.6333C11.7306 1.28577 11.8238 1.3244 11.8926 1.39316C11.9614 1.46192 12 1.55519 12 1.65243V11.9191C12 12.0163 11.9614 12.1096 11.8926 12.1784C11.8238 12.2471 11.7306 12.2858 11.6333 12.2858H1.36667C1.26942 12.2858 1.17616 12.2471 1.10739 12.1784C1.03863 12.1096 1 12.0163 1 11.9191Z"
    stroke="#DFDFDF"
    stroke-linecap="round"
    />
</svg>