<svg
    viewBox="0 0 13 13"
    fill="none"
    xmlns="http://www.w3.org/2000/svg"
>
    <path
    d="M10.625 9.92141C10.8438 9.92141 11.0536 10.0083 11.2084 10.163C11.3631 10.3178 11.45 10.5276 11.45 10.7464C11.45 10.9652 11.3631 11.1751 11.2084 11.3298C11.0536 11.4845 10.8438 11.5714 10.625 11.5714C10.4062 11.5714 10.1964 11.4845 10.0416 11.3298C9.88692 11.1751 9.8 10.9652 9.8 10.7464C9.8 10.5276 9.88692 10.3178 10.0416 10.163C10.1964 10.0083 10.4062 9.92141 10.625 9.92141ZM10.625 9.92141H2.7765C1.7953 9.92141 1.275 9.49186 1.275 8.82141C1.275 8.15096 1.7953 7.72141 2.7765 7.72141H10.9M2.65 1.67141H12L10.9 7.72141M2.65 1.67141L3.75 7.72141H10.9M2.65 1.67141C2.55815 1.30456 2.1 0.571411 1 0.571411M5.125 11.5714C5.3438 11.5714 5.55365 11.4845 5.70836 11.3298C5.86308 11.1751 5.95 10.9652 5.95 10.7464C5.95 10.5276 5.86308 10.3178 5.70836 10.163C5.55365 10.0083 5.3438 9.92141 5.125 9.92141C4.9062 9.92141 4.69635 10.0083 4.54164 10.163C4.38692 10.3178 4.3 10.5276 4.3 10.7464C4.3 10.9652 4.38692 11.1751 4.54164 11.3298C4.69635 11.4845 4.9062 11.5714 5.125 11.5714Z"
    stroke="#DFDFDF"
    stroke-linecap="round"
    stroke-linejoin="round"
    />
</svg>