<svg
    viewBox="0 0 13 13"
    fill="none"
    xmlns="http://www.w3.org/2000/svg"
>
    <path
    d="M8.94444 1.14282L11.7348 2.17436C11.8105 2.20233 11.874 2.25283 11.9151 2.31786C11.9563 2.3829 11.9728 2.45876 11.9621 2.53345L10.9379 9.63336C10.8882 9.97774 10.7525 10.3069 10.5427 10.5952C10.3328 10.8835 10.0538 11.1232 9.72728 11.2956L9.53172 11.3989C8.60833 11.8864 7.56322 12.1428 6.49969 12.1428C5.43617 12.1428 4.39106 11.8864 3.46767 11.3989L3.27211 11.2956C2.94563 11.1232 2.6666 10.8835 2.45673 10.5952C2.24686 10.3069 2.11182 9.97774 2.06211 9.63336L1.02444 2.43803C1.01692 2.38641 1.02238 2.33388 1.04039 2.28453C1.05841 2.23518 1.0885 2.19033 1.12833 2.15347L2.22222 1.14282L5.16656 1.98973M8.94444 1.14282H5.58333L5.16656 1.98973M8.94444 1.14282L7.72222 3.96585M5.16656 1.98973L4.66667 3.68355M1 2.83664C2.57117 4.34244 10.4288 4.34244 12 2.83664"
    stroke="#DFDFDF"
    />
</svg>