<svg
  viewBox="0 0 32 23"
  fill="none"
  xmlns="http://www.w3.org/2000/svg"
>
  <path
    d="M16 3.00001C16.2339 2.99866 16.4657 3.04348 16.6822 3.13191C16.8987 3.22034 17.0956 3.35064 17.2616 3.51533L31.4774 17.7311C31.6431 17.8968 31.7745 18.0935 31.8642 18.3099C31.9538 18.5264 32 18.7584 32 18.9927C32 19.4659 31.812 19.9198 31.4774 20.2544C31.1428 20.589 30.689 20.777 30.2158 20.777C29.7425 20.777 29.2887 20.589 28.9541 20.2544L16 7.28251L3.04589 20.2544C2.71128 20.589 2.25745 20.777 1.78424 20.777C1.31103 20.777 0.857202 20.589 0.522592 20.2544C0.187982 19.9198 -6.22604e-07 19.4659 -6.22604e-07 18.9927C-6.22604e-07 18.5195 0.187982 18.0657 0.522592 17.7311L14.7384 3.51533C14.9044 3.35064 15.1013 3.22034 15.3178 3.13191C15.5343 3.04348 15.7661 2.99866 16 3.00001Z"
    fill="white"
  />
</svg>