<svg
  viewBox="0 0 32 23"
  fill="none"
  xmlns="http://www.w3.org/2000/svg"
>
  <g>
    <path
      d="M16 20.777C15.7661 20.7783 15.5343 20.7335 15.3178 20.6451C15.1013 20.5566 14.9044 20.4263 14.7384 20.2616L0.522592 6.04589C0.35691 5.88021 0.225484 5.68351 0.135818 5.46704C0.0461513 5.25057 0 5.01855 0 4.78424C0 4.31103 0.187982 3.8572 0.522592 3.52259C0.857202 3.18798 1.31103 3 1.78424 3C2.25745 3 2.71128 3.18798 3.04589 3.52259L16 16.4945L28.9541 3.52259C29.2887 3.18798 29.7426 3 30.2158 3C30.689 3 31.1428 3.18798 31.4774 3.52259C31.812 3.8572 32 4.31103 32 4.78424C32 5.25745 31.812 5.71128 31.4774 6.04589L17.2616 20.2616C17.0956 20.4263 16.8987 20.5566 16.6822 20.6451C16.4657 20.7335 16.2339 20.7783 16 20.777Z"
      fill="white"
    />
  </g>
  <defs>
    <clipPath>
      <rect fill="none"/>
    </clipPath>
  </defs>
</svg>