<svg
    viewBox="0 0 13 13"
    fill="none"
    xmlns="http://www.w3.org/2000/svg"
>
    <path
    d="M6.5 8.57859C6.93761 8.57859 7.35729 8.40475 7.66673 8.09532C7.97616 7.78588 8.15 7.3662 8.15 6.92859C8.15 6.49098 7.97616 6.0713 7.66673 5.76186C7.35729 5.45243 6.93761 5.27859 6.5 5.27859C6.06239 5.27859 5.64271 5.45243 5.33327 5.76186C5.02384 6.0713 4.85 6.49098 4.85 6.92859C4.85 7.3662 5.02384 7.78588 5.33327 8.09532C5.64271 8.40475 6.06239 8.57859 6.5 8.57859Z"
    stroke="#DFDFDF"
    stroke-linecap="round"
    stroke-linejoin="round"
    />
    <path
    d="M10.6921 6.04584L10.0887 4.58834L10.9 3.62859L9.8 2.52859L8.84575 3.34424L7.3569 2.73209L7.01425 1.42859H5.93955L5.59195 2.74914L4.1372 3.36239L3.2 2.52859L2.1 3.62859L2.89915 4.61254L2.30515 6.07389L1 6.37859V7.47859L2.32055 7.83884L2.9338 9.29359L2.1 10.2286L3.2 11.3286L4.18505 10.5256L5.61835 11.1152L5.95 12.4286H7.05L7.3822 11.1157L8.84025 10.5118C9.08335 10.6856 9.8 11.3286 9.8 11.3286L10.9 10.2286L10.0838 9.26609L10.6877 7.80749L12 7.46649V6.37859L10.6921 6.04584Z"
    stroke="#DFDFDF"
    stroke-linecap="round"
    stroke-linejoin="round"
    />
</svg>