<svg viewBox="0 0 20 20" fill="none" xmlns="http://www.w3.org/2000/svg">
  <path
    d="M1 5.14014V2.14014C1 1.87492 1.10536 1.62057 1.29289 1.43303C1.48043 1.24549 1.73478 1.14014 2 1.14014H18C18.2652 1.14014 18.5196 1.24549 18.7071 1.43303C18.8946 1.62057 19 1.87492 19 2.14014V5.14014M1 5.14014L7.65 10.8401C7.75977 10.934 7.84789 11.0506 7.90831 11.1818C7.96873 11.313 8.00001 11.4557 8 11.6001V17.8601C8.00004 18.012 8.03469 18.1619 8.10131 18.2984C8.16792 18.4349 8.26477 18.5545 8.38448 18.648C8.50419 18.7415 8.64363 18.8065 8.79222 18.838C8.9408 18.8696 9.09462 18.8669 9.242 18.8301L11.242 18.3301C11.4584 18.2762 11.6506 18.1514 11.788 17.9756C11.9253 17.7998 11.9999 17.5832 12 17.3601V11.6001C12 11.4557 12.0313 11.313 12.0917 11.1818C12.1521 11.0506 12.2402 10.934 12.35 10.8401L19 5.14014M1 5.14014H19"
    stroke="white"
    stroke-width="1.5"
    stroke-linecap="round"
    stroke-linejoin="round"
  />
</svg>
