<svg
    viewBox="0 0 15 10"
    fill="none"
    xmlns="http://www.w3.org/2000/svg"
>
    <path
    d="M9.95514 0.974487V2.09269C9.95514 2.38926 9.82934 2.67368 9.60542 2.88338C9.3815 3.09309 9.0778 3.2109 8.76112 3.2109H6.3731C6.05642 3.2109 5.75272 3.09309 5.5288 2.88338C5.30488 2.67368 5.17908 2.38926 5.17908 2.09269V0.974487M10.8507 8.52237C12.3432 10.4792 14.7008 9.03394 14.1342 7.12461C13.2835 4.25698 12.8208 2.66074 12.5802 1.81761C12.5114 1.57619 12.3595 1.36274 12.1481 1.21032C11.9366 1.0579 11.6775 0.975013 11.4106 0.974487H3.72358C3.17552 0.974487 2.69792 1.32393 2.56478 1.82153C2.0627 3.6934 1.61674 5.3366 1.086 7.12461C0.520034 9.03394 2.87702 10.4792 4.36954 8.52237H10.8507ZM5.17908 7.68371C5.49575 7.68371 5.79946 7.5659 6.02338 7.3562C6.2473 7.14649 6.3731 6.86208 6.3731 6.56551C6.3731 6.26894 6.2473 5.98452 6.02338 5.77482C5.79946 5.56511 5.49575 5.4473 5.17908 5.4473C4.86241 5.4473 4.55871 5.56511 4.33478 5.77482C4.11086 5.98452 3.98507 6.26894 3.98507 6.56551C3.98507 6.86208 4.11086 7.14649 4.33478 7.3562C4.55871 7.5659 4.86241 7.68371 5.17908 7.68371ZM9.95514 7.68371C10.2718 7.68371 10.5755 7.5659 10.7994 7.3562C11.0234 7.14649 11.1492 6.86208 11.1492 6.56551C11.1492 6.26894 11.0234 5.98452 10.7994 5.77482C10.5755 5.56511 10.2718 5.4473 9.95514 5.4473C9.63847 5.4473 9.33477 5.56511 9.11084 5.77482C8.88692 5.98452 8.76112 6.26894 8.76112 6.56551C8.76112 6.86208 8.88692 7.14649 9.11084 7.3562C9.33477 7.5659 9.63847 7.68371 9.95514 7.68371Z"
    stroke="#262649"
    stroke-linecap="round"
    stroke-linejoin="round"
    />
    <path
    d="M9.95514 0.974487V2.09269C9.95514 2.38926 9.82934 2.67368 9.60542 2.88338C9.3815 3.09309 9.0778 3.2109 8.76112 3.2109H6.3731C6.05642 3.2109 5.75272 3.09309 5.5288 2.88338C5.30488 2.67368 5.17908 2.38926 5.17908 2.09269V0.974487M10.8507 8.52237C12.3432 10.4792 14.7008 9.03394 14.1342 7.12461C13.2835 4.25698 12.8208 2.66074 12.5802 1.81761C12.5114 1.57619 12.3595 1.36274 12.1481 1.21032C11.9366 1.0579 11.6775 0.975013 11.4106 0.974487H3.72358C3.17552 0.974487 2.69792 1.32393 2.56478 1.82153C2.0627 3.6934 1.61674 5.3366 1.086 7.12461C0.520034 9.03394 2.87702 10.4792 4.36954 8.52237H10.8507ZM5.17908 7.68371C5.49575 7.68371 5.79946 7.5659 6.02338 7.3562C6.2473 7.14649 6.3731 6.86208 6.3731 6.56551C6.3731 6.26894 6.2473 5.98452 6.02338 5.77482C5.79946 5.56511 5.49575 5.4473 5.17908 5.4473C4.86241 5.4473 4.55871 5.56511 4.33478 5.77482C4.11086 5.98452 3.98507 6.26894 3.98507 6.56551C3.98507 6.86208 4.11086 7.14649 4.33478 7.3562C4.55871 7.5659 4.86241 7.68371 5.17908 7.68371ZM9.95514 7.68371C10.2718 7.68371 10.5755 7.5659 10.7994 7.3562C11.0234 7.14649 11.1492 6.86208 11.1492 6.56551C11.1492 6.26894 11.0234 5.98452 10.7994 5.77482C10.5755 5.56511 10.2718 5.4473 9.95514 5.4473C9.63847 5.4473 9.33477 5.56511 9.11084 5.77482C8.88692 5.98452 8.76112 6.26894 8.76112 6.56551C8.76112 6.86208 8.88692 7.14649 9.11084 7.3562C9.33477 7.5659 9.63847 7.68371 9.95514 7.68371Z"
    stroke="#DFDFDF"
    stroke-linecap="round"
    stroke-linejoin="round"
    />
</svg>