<svg
    viewBox="0 0 13 13"
    fill="none"
    xmlns="http://www.w3.org/2000/svg"
>
    <path
    d="M8.85714 7.25C9.27136 7.25 9.60714 6.91421 9.60714 6.5C9.60714 6.08579 9.27136 5.75 8.85714 5.75V7.25ZM1 6.5L0.46967 5.96967C0.176777 6.26256 0.176777 6.73744 0.46967 7.03033L1 6.5ZM2.63038 9.19104C2.92328 9.48394 3.39815 9.48394 3.69104 9.19104C3.98394 8.89815 3.98394 8.42328 3.69104 8.13038L2.63038 9.19104ZM3.69104 4.86962C3.98394 4.57672 3.98394 4.10185 3.69104 3.80896C3.39815 3.51606 2.92328 3.51606 2.63038 3.80896L3.69104 4.86962ZM11.0795 1.92052L10.5491 2.45085L11.0795 1.92052ZM8.85714 5.75H1V7.25H8.85714V5.75ZM0.46967 7.03033L2.63038 9.19104L3.69104 8.13038L1.53033 5.96967L0.46967 7.03033ZM1.53033 7.03033L3.69104 4.86962L2.63038 3.80896L0.46967 5.96967L1.53033 7.03033ZM8.85714 1.75C9.49177 1.75 10.1004 2.0021 10.5491 2.45085L11.6098 1.39019C10.8798 0.660139 9.88959 0.25 8.85714 0.25V1.75ZM10.5491 2.45085C10.9979 2.8996 11.25 3.50823 11.25 4.14286H12.75C12.75 3.11041 12.3399 2.12024 11.6098 1.39019L10.5491 2.45085ZM11.25 4.14286V8.85714H12.75V4.14286H11.25ZM11.25 8.85714C11.25 9.49177 10.9979 10.1004 10.5491 10.5491L11.6098 11.6098C12.3399 10.8798 12.75 9.88959 12.75 8.85714H11.25ZM10.5491 10.5491C10.1004 10.9979 9.49177 11.25 8.85714 11.25V12.75C9.88959 12.75 10.8798 12.3399 11.6098 11.6098L10.5491 10.5491Z"
    fill="#DFDFDF"
    />
</svg>