<svg width="183" height="183" viewBox="0 0 183 183" fill="none" xmlns="http://www.w3.org/2000/svg">
<g clip-path="url(#clip0_334_2)">
<path d="M150.667 33.3552L124.129 27.2576L124.754 24.5387C126.603 16.4917 121.56 8.44074 113.514 6.59216L86.4757 0.379808C82.5901 -0.513389 78.5791 0.166785 75.1815 2.29452C71.7842 4.42225 69.4216 7.73412 68.5288 11.62L67.904 14.3389L41.3665 8.2413C33.2641 6.37878 25.1628 11.4556 23.3021 19.5555L20.7272 30.7617C20.622 31.2192 20.6079 31.6929 20.6858 32.1557C20.7636 32.6186 20.932 33.0616 21.1811 33.4594C21.4302 33.8572 21.7553 34.202 22.1378 34.4742C22.5202 34.7463 22.9525 34.9404 23.41 35.0454L118.965 57.0012H26.5024C26.0044 57.001 25.5119 57.1049 25.0564 57.3063C24.601 57.5076 24.1926 57.802 23.8576 58.1704C23.5226 58.5389 23.2682 58.9733 23.111 59.4458C22.9537 59.9183 22.8969 60.4185 22.9443 60.9142L33.3628 170.26C34.0547 177.523 40.078 183 47.3737 183H129.61C136.906 183 142.93 177.523 143.622 170.26L153.654 64.9717L155.122 65.3091C155.392 65.3709 155.661 65.4006 155.926 65.4006C157.554 65.4006 159.026 64.2804 159.406 62.6259L161.981 51.4197C162.88 47.5084 162.195 43.4709 160.053 40.0511C157.912 36.632 154.578 34.2541 150.667 33.3552ZM136.506 169.582C136.348 171.3 135.553 172.896 134.277 174.057C133.001 175.217 131.336 175.858 129.611 175.851H47.3741C45.6491 175.858 43.9844 175.218 42.7081 174.057C41.4319 172.897 40.6367 171.3 40.4794 169.582L30.4337 64.1499H146.552L136.506 169.582ZM75.496 13.2205C75.9614 11.1958 77.1973 9.4669 78.9762 8.35282C80.7548 7.23873 82.8482 6.88095 84.8751 7.34668L111.913 13.5594C116.118 14.5255 118.753 18.7331 117.787 22.9381L117.162 25.657L74.8712 15.9398L75.496 13.2205ZM155.014 49.8195L153.24 57.5419L28.4947 28.8792L30.2693 21.1567C31.2476 16.8984 35.5091 14.2313 39.766 15.2085L119.044 33.4242L119.045 33.4245H119.046L149.066 40.3221C153.324 41.3007 155.992 45.5612 155.014 49.8195ZM111.567 164.6L115.934 75.0535C116.03 73.0816 117.704 71.5672 119.678 71.6576C121.65 71.7541 123.17 73.43 123.074 75.4019L118.707 164.948C118.614 166.86 117.033 168.348 115.14 168.348C115.081 168.348 115.022 168.347 114.963 168.344C112.991 168.248 111.471 166.571 111.567 164.6ZM58.2779 164.948L53.9113 75.4016C53.8152 73.4297 55.3353 71.7537 57.3072 71.6572C59.2787 71.5665 60.9554 73.0812 61.0515 75.0531L65.4182 164.599C65.5143 166.571 63.9938 168.247 62.0223 168.344C61.963 168.347 61.904 168.348 61.8454 168.348C59.9507 168.348 58.3712 166.86 58.2779 164.948ZM84.9184 164.774V75.2275C84.9184 73.2538 86.5189 71.6533 88.4926 71.6533C90.4663 71.6533 92.0668 73.2538 92.0668 75.2275V164.774C92.0668 166.748 90.4663 168.348 88.4926 168.348C86.5189 168.348 84.9184 166.748 84.9184 164.774Z" fill="white"/>
</g>
<defs>
<clipPath id="clip0_334_2">
<rect width="183" height="183" fill="white"/>
</clipPath>
</defs>
</svg>
