<svg
    viewBox="0 0 13 13"
    fill="none"
    xmlns="http://www.w3.org/2000/svg"
>
    <path
    d="M7.76949 2.0794C7.76949 1.75525 7.63581 1.44437 7.39785 1.21516C7.15989 0.985947 6.83716 0.857178 6.50063 0.857178C6.16411 0.857178 5.84138 0.985947 5.60342 1.21516C5.36546 1.44437 5.23178 1.75525 5.23178 2.0794M11.1066 4.94918L11.9853 10.4492C12.013 10.6233 12.0015 10.8011 11.9513 10.9704C11.9011 11.1398 11.8135 11.2967 11.6945 11.4304C11.5755 11.5641 11.4279 11.6715 11.2618 11.7451C11.0958 11.8188 10.9151 11.857 10.7323 11.8572H2.26901C2.08606 11.8572 1.90527 11.8191 1.73903 11.7455C1.5728 11.6719 1.42505 11.5646 1.30591 11.4309C1.18678 11.2971 1.09907 11.1402 1.04882 10.9707C0.998558 10.8013 0.986935 10.6234 1.01474 10.4492L1.89343 4.94918C1.93952 4.66048 2.09142 4.39723 2.32162 4.20711C2.55181 4.01698 2.84509 3.91255 3.14832 3.91273H9.85295C10.1561 3.9127 10.4492 4.01719 10.6793 4.20731C10.9093 4.39742 11.0605 4.66059 11.1066 4.94918Z"
    stroke="#DFDFDF"
    stroke-linecap="round"
    stroke-linejoin="round"
    />
</svg>