<svg width="110" height="30" viewBox="0 0 110 30" fill="none" xmlns="http://www.w3.org/2000/svg">
<path d="M0 4.06372V29.7781H6.42131V17.8533L10.0804 23.9647H13.8884L17.3099 17.7037V29.48H23.8943V4.06372H17.7717L11.9467 15.319L6.12267 4.06372H0Z" fill="#DFDFDF"/>
<path d="M90.9154 4.25244V29.2887H97.0228V17.0201L104.984 29.2887H110V4.25244H104.002V16.7706L96.3683 4.25244H90.9154Z" fill="#DFDFDF"/>
<path d="M30.6172 8.02681C32.971 5.71156 35.9241 4.55347 39.4773 4.55347C43.0305 4.55347 45.9835 5.71156 48.3374 8.02681C50.6912 10.343 51.8676 13.3078 51.8676 16.9211C51.8676 20.5345 50.6902 23.5002 48.3374 25.8154C45.9835 28.1307 43.0305 29.2888 39.4773 29.2888C35.9241 29.2888 32.971 28.1316 30.6172 25.8154C28.2634 23.5002 27.0869 20.5354 27.0869 16.9211C27.0869 13.3068 28.2634 10.342 30.6172 8.02681ZM45.6209 10.6192C44.0371 8.97062 41.9886 8.14585 39.4773 8.14585C36.966 8.14585 34.9165 8.97062 33.3336 10.6192C31.7498 12.2687 30.9578 14.3687 30.9578 16.9211C30.9578 19.4735 31.7498 21.5745 33.3336 23.223C34.9175 24.8726 36.966 25.6964 39.4773 25.6964C41.9886 25.6964 44.0371 24.8726 45.6209 23.223C47.2048 21.5745 47.9967 19.4735 47.9967 16.9211C47.9967 14.3687 47.2048 12.2678 45.6209 10.6192Z" fill="#DFDFDF"/>
<path d="M85.8977 13.6152C85.7584 13.2304 85.5179 12.8847 85.1992 12.6266C84.6649 12.1933 84.1507 12.1933 83.4303 12.1933C80.8637 12.4571 81.0497 13.9609 81.0974 16.0885C81.1022 16.3161 81.1165 16.5437 81.1356 16.7695C81.71 23.598 77.2217 26.9361 75.1656 27.8266C75.7572 25.899 76.9002 24.4038 77.5309 23.8533C79.296 23.4028 79.8208 22.9028 79.9582 22.3914C80.191 21.5285 79.3199 20.7923 78.465 21.0561C76.468 21.6733 74.2592 25.1514 74.2592 25.1514C74.2592 25.1514 74.8507 23.8133 75.3631 23.0666C75.9146 22.398 75.7963 22.1228 75.7572 21.5323C75.1179 19.8847 74.867 18.938 74.7897 18.319C74.7152 17.7218 74.8498 17.1237 75.1217 16.5876C75.574 15.6942 75.0711 15.1171 74.6141 14.5295C73.2735 13.6685 72.7078 16.3199 72.5207 17.6923C72.4635 18.1085 72.6009 18.5276 72.8852 18.8371C74.4261 20.519 74.0216 21.299 73.7554 23.2066C73.7029 23.5809 73.6313 23.9552 73.5302 24.3199C72.8728 26.679 71.7479 27.1838 71.0333 27.1723C70.6812 27.1666 70.3968 26.8847 70.3949 26.5333C70.3883 25.6609 70.3654 24.4742 70.3386 23.6761C70.3234 23.2285 70.1679 22.7971 69.8883 22.4466C69.0849 21.4399 67.5478 20.3761 66.607 19.8133C66.3389 19.6523 65.9907 19.7571 65.8561 20.039C65.505 20.7771 65.3266 21.1457 65.1482 21.4276C65.0985 21.5066 64.9774 21.4476 65.006 21.358C65.402 20.1457 65.5384 19.2676 65.5279 18.6276C65.5088 17.4637 64.3772 16.618 63.2838 17.0218C62.6016 17.2733 62.7285 17.7695 62.6712 18.3056C62.6006 20.2161 62.2743 20.059 61.7505 20.0076C61.5711 19.9904 61.3946 19.9276 61.2553 19.8123C60.4033 19.1104 61.47 17.6514 62.0797 17.0076C62.7495 16.299 64.5232 15.8275 65.9821 15.2371C68.0802 14.4675 68.6326 15.5047 69 16.3323C69.2185 16.8237 69.6316 17.2161 70.1488 17.3666C70.83 17.5647 71.1745 17.2095 71.3576 16.779C71.538 16.3552 71.5361 15.8771 71.3863 15.4409C71.0046 14.3314 70.1106 13.8285 69.2328 13.618C68.2749 13.3875 67.2692 13.5685 66.399 14.0295C65.485 14.5133 64.6701 14.6247 64.0509 14.6856C66.0613 13.6237 65.9821 13.0333 66.2578 12.1675C65.8638 12.1285 65.1539 11.6171 64.9573 11.1837C64.4841 8.58754 62.5138 7.95801 61.6465 7.87896C62.3564 6.14753 61.4099 5.40086 61.0158 4.96753C60.8612 6.01801 60.3164 6.70468 59.8422 7.14182C59.5026 7.4542 59.1667 7.77134 58.8662 8.12087C55.3502 12.2114 55.291 16.2504 56.1249 19.3247C56.9045 22.198 58.661 24.7018 60.9967 26.5523C66.4267 30.8533 72.4998 30.1885 75.5625 29.4828C76.8124 29.1952 78.0079 28.7038 79.088 28.0123C86.5159 23.2609 86.7984 16.1104 85.8967 13.6123L85.8977 13.6152Z" fill="#DFDFDF"/>
<path d="M67.9924 17.0341C68.1737 17.0341 68.3206 16.8875 68.3206 16.7065C68.3206 16.5256 68.1737 16.3789 67.9924 16.3789C67.8111 16.3789 67.6642 16.5256 67.6642 16.7065C67.6642 16.8875 67.8111 17.0341 67.9924 17.0341Z" fill="#DFDFDF"/>
<path d="M68.0849 18.1513C68.2662 18.1513 68.4132 18.0047 68.4132 17.8237C68.4132 17.6428 68.2662 17.4961 68.0849 17.4961C67.9037 17.4961 67.7567 17.6428 67.7567 17.8237C67.7567 18.0047 67.9037 18.1513 68.0849 18.1513Z" fill="#DFDFDF"/>
<path d="M67.0011 18.1513C67.1824 18.1513 67.3293 18.0047 67.3293 17.8237C67.3293 17.6428 67.1824 17.4961 67.0011 17.4961C66.8198 17.4961 66.6729 17.6428 66.6729 17.8237C66.6729 18.0047 66.8198 18.1513 67.0011 18.1513Z" fill="#DFDFDF"/>
<path d="M66.9123 17.1093C67.0936 17.1093 67.2405 16.9627 67.2405 16.7817C67.2405 16.6008 67.0936 16.4541 66.9123 16.4541C66.7311 16.4541 66.5841 16.6008 66.5841 16.7817C66.5841 16.9627 66.7311 17.1093 66.9123 17.1093Z" fill="#DFDFDF"/>
<path d="M71.0361 19.9267C70.9083 19.7991 70.7003 19.7991 70.5715 19.9267C70.4436 20.0543 70.4436 20.262 70.5715 20.3905L70.9283 20.6981L70.6507 21.0181C70.5228 21.1458 70.5228 21.3534 70.6507 21.482C70.7785 21.6096 70.9865 21.6096 71.1153 21.482L71.4235 21.1258L71.7441 21.4029C71.872 21.5305 72.08 21.5305 72.2088 21.4029C72.3366 21.2753 72.3366 21.0677 72.2088 20.9391L71.8519 20.6315L72.1296 20.3115C72.2574 20.1839 72.2574 19.9762 72.1296 19.8477C72.0017 19.72 71.7937 19.72 71.6649 19.8477L71.3567 20.2039L71.0361 19.9267Z" fill="#DFDFDF"/>
<path d="M77.4413 2.48477C75.8269 2.87143 75.5425 3.18572 75.1924 4.96953C74.8422 3.18572 74.5579 2.87143 72.9435 2.48477C74.5579 2.0981 74.8422 1.78381 75.1924 0C75.5425 1.78381 75.8269 2.0981 77.4413 2.48477Z" fill="#DFDFDF"/>
<path d="M82.3446 5.54084C81.1901 5.81799 80.9878 6.0418 80.7369 7.31704C80.4869 6.0418 80.2837 5.81799 79.1292 5.54084C80.2837 5.2637 80.4859 5.03989 80.7369 3.76465C80.9868 5.03989 81.1901 5.2637 82.3446 5.54084Z" fill="#DFDFDF"/>
<path d="M74.8947 7.58005C74.1943 7.74767 74.0712 7.88386 73.9186 8.65815C73.7669 7.88386 73.6438 7.74767 72.9425 7.58005C73.6428 7.41243 73.7659 7.27624 73.9186 6.50195C74.0703 7.27624 74.1934 7.41243 74.8947 7.58005Z" fill="#DFDFDF"/>
</svg>
